<?xml version="1.0" encoding="UTF-8" standalone="no"?>
<!-- Created with Inkscape (http://www.inkscape.org/) -->

<svg
   xmlns:dc="http://purl.org/dc/elements/1.1/"
   xmlns:cc="http://creativecommons.org/ns#"
   xmlns:rdf="http://www.w3.org/1999/02/22-rdf-syntax-ns#"
   xmlns:svg="http://www.w3.org/2000/svg"
   xmlns="http://www.w3.org/2000/svg"
   xmlns:sodipodi="http://sodipodi.sourceforge.net/DTD/sodipodi-0.dtd"
   xmlns:inkscape="http://www.inkscape.org/namespaces/inkscape"
   version="1.1"
   id="svg2"
   xml:space="preserve"
   width="143"
   height="121"
   viewBox="0 0 143 121"
   sodipodi:docname="ddi_logo_cmyk_844_ddi_white.svg"
   inkscape:version="0.92.4 (5da689c313, 2019-01-14)"><metadata
     id="metadata8"><rdf:RDF><cc:Work
         rdf:about=""><dc:format>image/svg+xml</dc:format><dc:type
           rdf:resource="http://purl.org/dc/dcmitype/StillImage" /><dc:title></dc:title></cc:Work></rdf:RDF></metadata><defs
     id="defs6" /><sodipodi:namedview
     pagecolor="#ffffff"
     bordercolor="#666666"
     borderopacity="1"
     objecttolerance="10"
     gridtolerance="10"
     guidetolerance="10"
     inkscape:pageopacity="0"
     inkscape:pageshadow="2"
     inkscape:window-width="1858"
     inkscape:window-height="1016"
     id="namedview4"
     showgrid="false"
     inkscape:pagecheckerboard="true"
     inkscape:zoom="2.7583008"
     inkscape:cx="117.15771"
     inkscape:cy="37.170223"
     inkscape:window-x="62"
     inkscape:window-y="27"
     inkscape:window-maximized="1"
     inkscape:current-layer="g12" /><g
     id="g10"
     inkscape:groupmode="layer"
     inkscape:label="ink_ext_XXXXXX"
     transform="matrix(1.3333333,0,0,-1.3333333,0,121)"><g
       id="g12"
       transform="scale(0.1)"><path
         d="m 188.902,660.723 c 18.875,-11.567 43.407,-5.696 55.09,13.047 11.461,18.832 5.699,43.453 -13.047,55.043 -18.761,11.574 -43.402,5.765 -55,-12.973 -11.636,-18.789 -5.808,-43.453 12.957,-55.117 z"
         style="fill:none;stroke:#ffffff;stroke-width:14.1626997;stroke-linecap:butt;stroke-linejoin:miter;stroke-miterlimit:10;stroke-dasharray:none;stroke-opacity:1"
         id="path14"
         inkscape:connector-curvature="0" /><path
         d="m 242.223,628.961 c -24.41,11.844 -57.239,9.176 -78.418,-6.711 -15.934,-11.918 -21,-28.488 -21,-47.184 0.047,-20.601 0.09,-163.804 0.109,-207.156"
         style="fill:none;stroke:#ffffff;stroke-width:14.1626997;stroke-linecap:round;stroke-linejoin:miter;stroke-miterlimit:10;stroke-dasharray:none;stroke-opacity:1"
         id="path16"
         inkscape:connector-curvature="0" /><path
         d="m 463.605,660.723 c -18.878,-11.567 -43.406,-5.696 -55.089,13.047 -11.461,18.832 -5.7,43.453 13.047,55.043 18.765,11.574 43.402,5.765 54.996,-12.973 11.64,-18.789 5.808,-43.453 -12.954,-55.117 z"
         style="fill:none;stroke:#ffffff;stroke-width:14.1626997;stroke-linecap:butt;stroke-linejoin:miter;stroke-miterlimit:10;stroke-dasharray:none;stroke-opacity:1"
         id="path18"
         inkscape:connector-curvature="0" /><path
         d="m 410.289,628.961 c 24.406,11.844 57.231,9.176 78.418,-6.711 15.926,-11.918 21,-28.488 21,-47.184 -0.051,-20.601 -0.09,-163.804 -0.117,-207.156"
         style="fill:none;stroke:#ffffff;stroke-width:14.1626997;stroke-linecap:round;stroke-linejoin:miter;stroke-miterlimit:10;stroke-dasharray:none;stroke-opacity:1"
         id="path20"
         inkscape:connector-curvature="0" /><path
         d="m 309.879,690.348 c 18.875,-11.598 43.449,-5.7 55.094,13.019 11.476,18.856 5.711,43.449 -13.032,55.071 -18.761,11.574 -43.425,5.742 -55.015,-13.004 -11.621,-18.786 -5.793,-43.446 12.953,-55.086 z"
         style="fill:none;stroke:#ffffff;stroke-width:14.1626997;stroke-linecap:butt;stroke-linejoin:miter;stroke-miterlimit:10;stroke-dasharray:none;stroke-opacity:1"
         id="path22"
         inkscape:connector-curvature="0" /><path
         d="m 394.148,526.816 c 0.071,17.793 0.145,36.657 0.165,45.622 0.019,10.394 0.066,20.765 0.089,31.167 0.028,8.641 0.184,17.055 -3.062,25.305 -16.024,40.758 -74.555,46.934 -106.543,22.961 -15.91,-11.914 -21.024,-28.512 -20.996,-47.187 0.031,-17.043 0.051,-278.571 0.082,-412.438"
         style="fill:none;stroke:#ffffff;stroke-width:14.1626997;stroke-linecap:round;stroke-linejoin:miter;stroke-miterlimit:10;stroke-dasharray:none;stroke-opacity:1"
         id="path24"
         inkscape:connector-curvature="0" /><path
         d="m 211.227,207.734 52.972,-91.711 52.946,91.743 z"
         style="fill:#ffffff;fill-opacity:1;fill-rule:nonzero;stroke:#ffffff"
         id="path26"
         inkscape:connector-curvature="0" /><path
         d="m 110.898,366.199 h 66.829 v -65.601 h -66.829 z"
         style="fill:none;stroke:#ffffff;stroke-width:14.1626997;stroke-linecap:round;stroke-linejoin:miter;stroke-miterlimit:10;stroke-dasharray:none;stroke-opacity:1"
         id="path28"
         inkscape:connector-curvature="0" /><path
         d="m 431.191,488.008 c 0,-19.805 -16.039,-35.86 -35.843,-35.86 -19.801,0 -35.84,16.055 -35.84,35.86 0,19.797 16.039,35.84 35.84,35.84 19.804,0 35.843,-16.043 35.843,-35.84 z"
         style="fill:none;stroke:#ffffff;stroke-width:14.1626997;stroke-linecap:round;stroke-linejoin:miter;stroke-miterlimit:10;stroke-dasharray:none;stroke-opacity:1"
         id="path30"
         inkscape:connector-curvature="0" /><path
         d="m 597.512,378.457 h 17.054 c 20.422,0 34.579,1.277 42.461,3.809 11.11,3.613 19.848,10.129 26.211,19.531 6.364,9.375 9.543,20.879 9.543,34.453 0,14.246 -3.461,26.418 -10.347,36.516 -6.899,10.093 -16.504,17.007 -28.821,20.742 -9.218,2.808 -24.453,4.219 -45.66,4.219 h -10.441 z m -14.157,-13.945 v 147.676 h 30.61 c 22.086,0 38.105,-1.79 48.086,-5.313 14.316,-5.02 25.523,-13.73 33.59,-26.113 8.066,-12.371 12.097,-27.129 12.097,-44.278 0,-14.785 -3.203,-27.8 -9.59,-39.043 -6.378,-11.257 -14.707,-19.558 -24.89,-24.914 -10.211,-5.332 -24.528,-8.015 -42.926,-8.015 h -46.977"
         style="fill:#ffffff;fill-opacity:1;fill-rule:nonzero;stroke:#ffffff"
         id="path32"
         inkscape:connector-curvature="0" /><path
         d="m 929.348,512.188 h 14.754 V 364.512 h -14.754 v 147.676"
         style="fill:#ffffff;fill-opacity:1;fill-rule:nonzero;stroke:#ffffff"
         id="path34"
         inkscape:connector-curvature="0" /><path
         d="m 768.734,378.457 h 17.055 c 20.426,0 34.582,1.277 42.461,3.809 11.109,3.613 19.848,10.129 26.211,19.531 6.363,9.375 9.547,20.879 9.547,34.453 0,14.246 -3.461,26.418 -10.352,36.516 -6.894,10.093 -16.504,17.007 -28.82,20.742 -9.219,2.808 -24.453,4.219 -45.656,4.219 h -10.446 z m -14.156,-13.945 v 147.676 h 30.61 c 22.085,0 38.105,-1.79 48.085,-5.313 14.317,-5.02 25.524,-13.73 33.59,-26.113 8.067,-12.371 12.102,-27.129 12.102,-44.278 0,-14.785 -3.203,-27.8 -9.59,-39.043 -6.383,-11.257 -14.707,-19.558 -24.895,-24.914 -10.21,-5.332 -24.527,-8.015 -42.925,-8.015 h -46.977"
         style="fill:#ffffff;fill-opacity:1;fill-rule:nonzero;stroke:#ffffff"
         id="path36"
         inkscape:connector-curvature="0" /></g></g></svg>
