<?xml version="1.0" encoding="UTF-8" standalone="no"?>
<!-- Created with Inkscape (http://www.inkscape.org/) -->

<svg
   xmlns:dc="http://purl.org/dc/elements/1.1/"
   xmlns:cc="http://creativecommons.org/ns#"
   xmlns:rdf="http://www.w3.org/1999/02/22-rdf-syntax-ns#"
   xmlns:svg="http://www.w3.org/2000/svg"
   xmlns="http://www.w3.org/2000/svg"
   xmlns:sodipodi="http://sodipodi.sourceforge.net/DTD/sodipodi-0.dtd"
   xmlns:inkscape="http://www.inkscape.org/namespaces/inkscape"
   version="1.1"
   id="svg2"
   xml:space="preserve"
   width="1122.52"
   height="434.21332"
   viewBox="0 0 1122.52 434.21332"
   sodipodi:docname="logo_claim_en_white_4c.svg"
   inkscape:version="0.92.4 (5da689c313, 2019-01-14)"><metadata
     id="metadata8"><rdf:RDF><cc:Work
         rdf:about=""><dc:format>image/svg+xml</dc:format><dc:type
           rdf:resource="http://purl.org/dc/dcmitype/StillImage" /><dc:title></dc:title></cc:Work></rdf:RDF></metadata><defs
     id="defs6" /><sodipodi:namedview
     pagecolor="#ffffff"
     bordercolor="#666666"
     borderopacity="1"
     objecttolerance="10"
     gridtolerance="10"
     guidetolerance="10"
     inkscape:pageopacity="0"
     inkscape:pageshadow="2"
     inkscape:window-width="2506"
     inkscape:window-height="1376"
     id="namedview4"
     showgrid="false"
     inkscape:pagecheckerboard="true"
     inkscape:zoom="1.2195406"
     inkscape:cx="383.1669"
     inkscape:cy="186.76672"
     inkscape:window-x="54"
     inkscape:window-y="27"
     inkscape:window-maximized="1"
     inkscape:current-layer="g12" /><g
     id="g10"
     inkscape:groupmode="layer"
     inkscape:label="ink_ext_XXXXXX"
     transform="matrix(1.3333333,0,0,-1.3333333,0,434.21333)"><g
       id="g12"
       transform="scale(0.1)"><path
         d="m 588.375,507.621 c 0,51.988 -10.832,76.539 -45.492,76.539 -85.918,0 -132.137,-174.019 -132.137,-291.711 0,-51.277 10.832,-75.828 46.219,-75.828 85.918,0 131.41,173.289 131.41,291 z M 446.852,140.801 c -85.196,0 -133.582,51.988 -133.582,149.48 0,168.969 74.371,369.68 240.441,369.68 83.766,0 132.148,-52.711 132.148,-150.18 0,-168.242 -73.664,-368.98 -239.007,-368.98"
         style="fill:#ffffff;fill-opacity:1;fill-rule:nonzero;stroke:none"
         id="path14"
         inkscape:connector-curvature="0" /><path
         d="m 809.332,222.41 c 5.781,-2.898 21.66,-14.461 46.215,-14.461 73.648,0 100.367,116.992 100.367,192.09 0,31.031 -12.277,49.801 -34.66,49.801 -44.047,0 -75.094,-56.309 -86.645,-108.301 z M 768.176,27.4492 c -1.446,-7.2109 -2.164,-10.1094 -13,-12.2773 L 691.637,2.19141 C 688.75,1.44922 682.98,0 680.805,0 c -3.61,0 -3.61,2.89844 -3.61,6.5 0,4.3398 2.164,10.8398 2.887,15.1602 l 82.32,387.0388 c 3.61,15.883 2.887,28.871 2.887,37.539 -0.723,17.313 -5.773,34.672 -5.773,43.332 0,5.051 5.05,6.481 8.66,7.95 l 57.765,22.359 c 2.164,0.723 5.051,2.191 8.668,2.191 7.942,0 13.715,-28.91 13.715,-65 18.055,20.942 51.262,65 115.528,65 51.268,0 78.708,-36.109 78.708,-108.332 0,-115.519 -58.494,-272.937 -183.412,-272.937 -35.371,0 -51.261,11.57 -62.808,18.07 L 768.176,27.4492"
         style="fill:#ffffff;fill-opacity:1;fill-rule:nonzero;stroke:none"
         id="path16"
         inkscape:connector-curvature="0" /><path
         d="m 1184.09,355.25 c 31.05,0 127.81,0 127.81,66.449 0,18.762 -11.56,35.371 -33.22,35.371 -67.87,0 -88.09,-75.09 -94.59,-101.82 z m 167.52,-163.168 c 0.72,-2.172 2.16,-4.344 2.16,-6.5 0,-9.383 -67.15,-44.781 -140.8,-44.781 -86.65,0 -125.63,54.148 -125.63,134.32 0,144.391 93.14,246.949 204.34,246.949 67.87,0 106.86,-37.558 106.86,-95.32 0,-136.469 -183.4,-136.469 -224.56,-136.469 0,-21.66 -5.77,-77.269 62.09,-77.269 42.61,0 80.88,28.886 91.71,28.886 3.61,0 4.33,-2.168 5.78,-5.058 l 18.05,-44.758"
         style="fill:#ffffff;fill-opacity:1;fill-rule:nonzero;stroke:none"
         id="path18"
         inkscape:connector-curvature="0" /><path
         d="m 1688.82,161.75 c -1.44,-7.961 -2.89,-8.668 -10.11,-8.668 h -67.15 c -5.78,0 -9.4,1.449 -9.4,7.207 0,2.191 0.73,5.063 0.73,7.953 l 47.66,205.789 c 3.61,14.449 6.5,28.879 6.5,44.051 0,16.617 -6.5,28.156 -21.66,28.156 -66.43,0 -90.26,-89.539 -101.82,-141.508 l -31.05,-142.98 c -1.44,-7.961 -2.89,-8.668 -10.1,-8.668 h -67.15 c -5.78,0 -9.39,1.449 -9.39,7.207 0,2.191 0.73,5.063 0.73,7.953 l 49.09,217.34 c 4.33,18.047 8.67,36.117 8.67,59.199 0,21.668 -6.49,31.789 -6.49,44.789 0,5.051 5.04,6.481 8.65,7.95 l 57.77,22.359 c 2.16,0.723 3.61,2.191 7.22,2.191 7.94,0 14.44,-32.5 14.44,-72.949 19.49,23.109 60.65,72.949 119.87,72.949 46.92,0 72.92,-36.109 72.92,-75.832 0,-18.777 -2.89,-38.289 -7.23,-56.328 l -52.7,-228.16"
         style="fill:#ffffff;fill-opacity:1;fill-rule:nonzero;stroke:none"
         id="path20"
         inkscape:connector-curvature="0" /><path
         d="m 1976.21,305.43 c -2.89,-10.098 -4.34,-10.809 -13,-10.809 h -149.46 c -7.23,0 -12.28,2.879 -12.28,7.949 0,4.301 1.45,11.551 2.16,15.871 l 10.84,48.379 c 2.88,10.09 4.33,10.821 13,10.821 h 149.45 c 7.95,0 12.28,-2.149 12.28,-7.942 0,-4.328 -1.44,-11.558 -2.16,-15.867 l -10.83,-48.402"
         style="fill:#ffffff;fill-opacity:1;fill-rule:nonzero;stroke:none"
         id="path22"
         inkscape:connector-curvature="0" /><path
         d="m 2395.73,161.75 c -1.45,-6.512 -3.62,-8.668 -10.11,-8.668 h -39 c -4.33,0 -7.22,1.449 -7.22,4.328 0,1.461 1.44,5.07 1.44,7.219 L 2408,534.332 c 1.44,6.5 6.49,29.598 7.94,36.828 l -1.45,1.449 c -3.6,-11.578 -12.27,-31.07 -16.6,-38.277 L 2257.81,275.121 c -2.89,-5.789 -3.61,-6.5 -10.83,-6.5 h -20.94 c -7.23,0 -9.38,0.711 -10.11,9.379 l -26.72,256.332 c -2.15,18.047 -2.88,33.949 -2.88,41.168 h -1.45 c -0.71,-12.301 -4.33,-32.5 -6.5,-41.168 L 2088.85,161.75 c -1.44,-6.512 -3.62,-8.668 -10.11,-8.668 h -38.99 c -4.33,0 -7.22,1.449 -7.22,5.789 0,1.418 0.72,3.609 1.44,5.758 l 127.81,475.121 c 1.44,6.488 4.33,7.949 10.83,7.949 h 38.27 c 5.78,0 9.38,0 10.11,-8.679 l 29.6,-249.821 c 1.44,-11.558 1.44,-22.379 1.44,-38.258 h 1.45 c 2.89,9.391 10.83,28.141 16.6,38.258 l 135.75,252 c 2.89,5.75 3.61,6.5 11.56,6.5 h 45.49 c 6.49,0 7.22,-2.168 7.22,-5.058 0,-1.442 -0.73,-4.34 -0.73,-5.789 L 2395.73,161.75"
         style="fill:#ffffff;fill-opacity:1;fill-rule:nonzero;stroke:none"
         id="path24"
         inkscape:connector-curvature="0" /><path
         d="m 2647.02,589.941 c -22.39,0 -40.44,18.051 -40.44,40.418 0,21.653 18.05,40.43 40.44,40.43 21.66,0 40.43,-18.777 40.43,-40.43 0,-22.367 -18.77,-40.418 -40.43,-40.418 z m -68.6,-422.41 c -1.44,-6.5 -2.17,-14.449 -9.39,-14.449 h -38.27 c -4.32,0 -7.22,1.449 -7.22,3.598 0,2.902 0.72,6.511 1.45,8.672 l 62.09,292.437 h -57.04 c -5.05,0 -5.78,2.16 -5.78,5.063 0,1.449 0,2.878 0.73,5.769 l 5.05,23.121 c 1.45,5.039 3.62,7.93 8.67,7.93 h 96.03 c 10.11,0 11.55,-0.723 11.55,-5.781 0,-4.321 -2.16,-10.102 -3.6,-18.032 l -64.27,-308.328"
         style="fill:#ffffff;fill-opacity:1;fill-rule:nonzero;stroke:none"
         id="path26"
         inkscape:connector-curvature="0" /><path
         d="m 2747.38,405.082 c 2.89,15.156 5.05,31.047 5.05,41.156 0,14.442 -2.88,28.883 -5.78,43.332 0,2.879 3.62,5.051 6.5,5.762 l 26.01,10.828 c 4.33,1.461 7.21,3.621 10.1,3.621 5.77,0 13.71,-21.672 13.71,-44.051 0,-14.441 -2.16,-25.98 -2.16,-32.488 h 1.45 c 26.71,37.547 66.42,76.539 130.68,76.539 37.56,0 65.72,-19.5 65.72,-57.769 0,-17.313 -3.62,-33.93 -7.23,-50.563 l -51.26,-241.16 c -1.45,-5.051 -2.89,-7.207 -8.67,-7.207 h -37.54 c -3.62,0 -5.78,1.449 -5.78,4.328 0,1.461 0,3.621 0.72,5.07 l 50.54,238.969 c 2.17,9.41 4.33,19.512 4.33,28.91 0,20.211 -10.83,31.051 -32.48,31.051 -77.99,0 -120.59,-96.039 -130.69,-143.699 l -33.22,-157.422 c -1.45,-5.051 -2.89,-7.207 -8.66,-7.207 h -37.55 c -3.62,0 -5.78,1.449 -5.78,4.328 0,1.461 0,3.621 0.72,5.07 l 51.27,242.602"
         style="fill:#ffffff;fill-opacity:1;fill-rule:nonzero;stroke:none"
         id="path28"
         inkscape:connector-curvature="0" /><path
         d="m 3293.98,439.75 c -18.04,10.82 -31.76,21.66 -63.53,21.66 -90.25,0 -117.7,-132.129 -117.7,-208.68 0,-36.82 9.39,-61.371 39.72,-61.371 59.92,0 101.81,60.653 116.97,132.86 z m 46.22,214.449 c 0.72,4.313 2.17,10.102 7.22,11.543 l 36.1,8.656 c 1.45,0 3.61,1.461 6.5,1.461 5.05,0 5.78,-2.187 5.05,-5.777 l -86.64,-406.531 c -2.89,-15.153 -4.34,-34.641 -4.34,-51.981 0,-20.211 7.23,-38.281 7.23,-43.328 0,-2.89 -4.33,-5.051 -7.23,-5.762 l -25.98,-10.839 c -4.34,-1.45 -7.23,-3.61 -10.12,-3.61 -5.77,0 -13.71,21.66 -13.71,44.051 -0.73,12.27 -0.73,18.059 -0.73,24.539 h -1.44 c -20.94,-30.332 -55.6,-73.652 -112.64,-73.652 -51.99,0 -81.59,35.371 -81.59,106.871 0,123.461 53.43,259.941 170.4,259.941 38.27,0 59.93,-14.449 75.81,-23.82 l 36.11,168.238"
         style="fill:#ffffff;fill-opacity:1;fill-rule:nonzero;stroke:none"
         id="path30"
         inkscape:connector-curvature="0" /><path
         d="m 3632.65,415.191 c 0,30.321 -17.34,49.829 -52.72,49.829 -82.32,0 -105.42,-93.891 -113.37,-129.239 39.72,0 166.09,0 166.09,79.41 z m 21.66,-217.332 c 0.71,-1.449 1.44,-2.168 1.44,-3.617 0,-8.66 -63.55,-51.273 -133.58,-51.273 -81.6,0 -116.97,51.98 -116.97,132.152 0,122.738 75.08,234.66 182.67,234.66 64.26,0 95.31,-38.992 95.31,-92.441 0,-125.629 -158.85,-125.629 -222.39,-126.34 0,-6.488 -0.73,-12.27 -0.73,-18.051 0,-51.269 20.22,-79.437 67.16,-79.437 64.26,0 93.14,34.679 103.25,34.679 2.89,0 5.06,-2.179 6.5,-4.339 l 17.34,-25.993"
         style="fill:#ffffff;fill-opacity:1;fill-rule:nonzero;stroke:none"
         id="path32"
         inkscape:connector-curvature="0" /><path
         d="m 3961.9,439.75 c -18.06,10.82 -31.77,21.66 -63.55,21.66 -90.25,0 -117.7,-132.129 -117.7,-208.68 0,-36.82 9.39,-61.371 39.73,-61.371 59.92,0 101.8,60.653 116.97,132.86 z m 46.21,214.449 c 0.72,4.313 2.16,10.102 7.22,11.543 l 36.11,8.656 c 1.44,0 3.6,1.461 6.49,1.461 5.06,0 5.77,-2.187 5.06,-5.777 l -86.65,-406.531 c -2.89,-15.153 -4.33,-34.641 -4.33,-51.981 0,-20.211 7.22,-38.281 7.22,-43.328 0,-2.89 -4.33,-5.051 -7.22,-5.762 l -25.99,-10.839 c -4.34,-1.45 -7.23,-3.61 -10.11,-3.61 -5.78,0 -13.73,21.66 -13.73,44.051 -0.72,12.27 -0.72,18.059 -0.72,24.539 h -1.45 c -20.93,-30.332 -55.59,-73.652 -112.63,-73.652 -51.98,0 -81.59,35.371 -81.59,106.871 0,123.461 53.42,259.941 170.4,259.941 38.27,0 59.93,-14.449 75.82,-23.82 l 36.1,168.238"
         style="fill:#ffffff;fill-opacity:1;fill-rule:nonzero;stroke:none"
         id="path34"
         inkscape:connector-curvature="0" /><path
         style="fill:#ffffff;fill-opacity:1;fill-rule:nonzero;stroke:none;stroke-width:0.13333333"
         d="M 0 -0.005859375 L 0 279.29297 L 1122.5195 279.29297 L 1122.5195 -0.005859375 L 0 -0.005859375 z M 359.7168 30.03125 L 366.62695 30.03125 L 366.62695 37.496094 L 359.7168 37.496094 L 359.7168 30.03125 z M 369.74219 30.03125 L 376.70312 30.03125 L 376.70312 37.496094 L 369.74219 37.496094 L 369.74219 30.03125 z M 276.30078 39.080078 C 282.30478 39.080078 286.89122 41.572146 289.83789 46.382812 L 283.27148 51.085938 C 281.05415 47.964602 278.62764 46.443359 275.79297 46.443359 C 272.9623 46.443359 271.20703 48.032852 271.20703 50.242188 C 271.20703 52.330187 272.85255 53.866078 276.19922 55.330078 C 280.37655 57.135411 284.06135 58.3365 286.55469 60.3125 C 289.32802 62.521833 290.91406 65.865386 290.91406 69.886719 C 290.91406 77.424052 285.25386 82.632812 276.64453 82.632812 C 270.13386 82.632812 265.14555 79.79614 261.68555 74.244141 L 268.82227 69.207031 C 271.20627 73.117698 273.53252 74.921875 276.86719 74.921875 C 280.04185 74.921875 282.08594 73.058219 282.08594 70.574219 C 282.08594 68.302219 280.61681 66.594641 277.49414 65.306641 C 273.41681 63.603974 269.84333 62.419 267.25 60.375 C 264.362 58.104333 262.88477 54.932604 262.88477 51.085938 C 262.88477 43.780602 268.04078 39.080078 276.30078 39.080078 z M 44.589844 40.160156 L 53.759766 40.160156 L 53.759766 66.044922 C 53.759766 72.043588 54.654902 74.587891 59.417969 74.587891 C 64.238769 74.587891 65.083984 71.980922 65.083984 66.044922 L 65.083984 40.160156 L 74.251953 40.160156 L 74.251953 68.125 C 74.251953 77.867666 69.501835 82.572266 59.417969 82.572266 C 49.392369 82.572266 44.589844 77.815666 44.589844 68.125 L 44.589844 40.160156 z M 85.923828 40.160156 L 94.751953 40.160156 L 108.00977 65.306641 L 107.83398 40.160156 L 115.82617 40.160156 L 115.82617 81.564453 L 108.28711 81.564453 L 93.738281 53.582031 L 93.904297 81.564453 L 85.923828 81.564453 L 85.923828 40.160156 z M 128.2793 40.160156 L 137.45703 40.160156 L 137.50977 81.564453 L 128.33203 81.564453 L 128.2793 40.160156 z M 145.78125 40.160156 L 154.95117 40.160156 L 163.32812 69.097656 L 171.65039 40.160156 L 180.83203 40.160156 L 168.14258 81.564453 L 158.46094 81.564453 L 145.78125 40.160156 z M 188.02344 40.160156 L 215.93555 40.160156 L 215.93555 48.142578 L 197.20312 48.142578 L 197.20312 55.560547 L 209.99414 55.560547 L 209.99414 63.544922 L 197.20312 63.544922 L 197.20312 73.574219 L 217.12305 73.574219 L 217.12305 81.564453 L 188.02344 81.564453 L 188.02344 40.160156 z M 226.30078 40.160156 L 236.71875 40.160156 C 242.27342 40.160156 246.46146 40.332016 249.4668 41.916016 C 253.19613 43.900016 255.23633 47.578005 255.23633 52.388672 C 255.23633 57.942005 252.57296 61.891516 247.6543 63.603516 L 256.71289 81.564453 L 246.57812 81.564453 L 238.5332 64.677734 L 235.4707 64.677734 L 235.4707 81.564453 L 226.30078 81.564453 L 226.30078 40.160156 z M 300.88086 40.160156 L 310.05078 40.160156 L 310.11328 81.564453 L 300.93945 81.564453 L 300.88086 40.160156 z M 317.86719 40.160156 L 347.99023 40.160156 L 347.99023 48.142578 L 337.52734 48.142578 L 337.52734 81.564453 L 328.3457 81.564453 L 328.3457 48.142578 L 317.86719 48.142578 L 317.86719 40.160156 z M 362.77539 40.160156 L 373.58789 40.160156 L 385.48438 81.564453 L 376.59766 81.564453 L 374.37891 73.292969 L 361.92578 73.292969 L 359.77148 81.564453 L 350.875 81.564453 L 362.77539 40.160156 z M 388.42578 40.160156 L 418.55469 40.160156 L 418.55469 48.142578 L 408.07617 48.142578 L 408.07617 81.564453 L 398.90625 81.564453 L 398.90625 48.142578 L 388.42578 48.142578 L 388.42578 40.160156 z M 235.4707 47.183594 L 235.4707 58.050781 L 238.02344 58.050781 C 243.57944 58.050781 246.06641 57.26038 246.06641 52.623047 C 246.06641 47.963047 243.57944 47.183594 238.02344 47.183594 L 235.4707 47.183594 z M 368.21094 47.517578 L 363.74023 66.208984 L 372.62891 66.208984 L 368.21094 47.517578 z M 281.26953 115.04688 C 289.3802 115.04688 295.58969 118.40516 299.56836 124.92383 L 290.68359 131.29102 C 287.69426 127.06168 284.40222 124.99219 280.57422 124.99219 C 276.74355 124.99219 274.37695 127.14029 274.37695 130.12695 C 274.37695 132.96562 276.59933 135.03553 281.11133 137.01953 C 286.77933 139.4702 291.75905 141.07781 295.12305 143.75781 C 298.87105 146.74715 301.01953 151.26722 301.01953 156.69922 C 301.01953 166.89122 293.37128 173.92188 281.72461 173.92188 C 272.91794 173.92188 266.18853 170.09161 261.50586 162.59961 L 271.16016 155.77539 C 274.37749 161.06739 277.52182 163.50586 282.03516 163.50586 C 286.32449 163.50586 289.07813 160.98838 289.07812 157.62305 C 289.07812 154.56038 287.08681 152.26009 282.88281 150.49609 C 277.36548 148.20543 272.53882 146.5857 269.02148 143.8457 C 265.11348 140.76837 263.12305 136.49235 263.12305 131.29102 C 263.12305 121.40835 270.0842 115.04688 281.26953 115.04688 z M 599.61523 115.04688 C 610.96323 115.04688 618.07666 121.47682 618.61133 132.27148 L 606.05469 132.27148 C 605.75202 128.07015 603.51923 125.85156 599.61523 125.85156 C 593.4939 125.85156 593.19531 129.74048 593.19531 137.39648 L 593.19531 151.49414 C 593.19531 159.07147 593.4939 163.05078 599.61523 163.05078 C 604.1419 163.05078 606.05469 160.37921 606.05469 154.56055 L 606.05469 152.40625 L 599.53906 152.40625 L 599.53906 142.83984 L 618.61133 142.83984 L 618.61133 173.16797 L 613.10352 173.16797 L 611.33008 168.63672 C 608.04074 172.32472 604.37019 173.92188 599.24219 173.92188 C 593.58485 173.92188 588.74999 172.02489 585.61133 168.71289 C 581.02733 163.98089 580.64648 158.08569 580.64648 149.42969 L 580.64648 139.54688 C 580.64648 130.97887 581.02733 124.99195 585.61133 120.25195 C 588.83133 116.88529 593.6539 115.04688 599.61523 115.04688 z M 44.451172 116.49805 L 60.607422 116.49805 C 67.567288 116.49805 72.632153 116.81665 76.376953 119.33398 C 80.891086 122.39398 83.578125 128.21581 83.578125 135.86914 L 83.578125 153.02344 C 83.578125 160.67944 80.891086 166.57531 76.376953 169.55664 C 72.698287 172.02597 67.567288 172.47852 60.607422 172.47852 L 44.451172 172.47852 L 44.451172 116.49805 z M 124.91992 116.49805 L 137.33008 116.49805 L 137.33008 151.49414 C 137.33008 159.60481 138.55237 163.05078 144.98438 163.05078 C 151.48571 163.05078 152.63867 159.53547 152.63867 151.49414 L 152.63867 116.49805 L 165.03906 116.49805 L 165.03906 154.32031 C 165.03906 167.49498 158.60571 173.85547 144.98438 173.85547 C 131.4241 173.85547 124.91992 167.41898 124.91992 154.32031 L 124.91992 116.49805 z M 209.21484 116.49805 L 221.62305 116.49805 L 221.69531 172.47852 L 209.29492 172.47852 L 209.21484 116.49805 z M 340.45117 116.49805 L 358.98047 116.49805 C 371.61114 116.49805 377.81445 121.03009 377.81445 130.74609 C 377.81445 136.79809 375.44843 140.54462 370.00977 143.00195 C 375.9791 144.91129 378.96094 149.34572 378.96094 156.40039 C 378.96094 167.34839 372.53466 172.47852 359.36133 172.47852 L 340.45117 172.47852 L 340.45117 116.49805 z M 419.54297 116.49805 L 431.94336 116.49805 L 431.94336 151.49414 C 431.94336 159.60481 433.17799 163.05078 439.61133 163.05078 C 446.11133 163.05078 447.26563 159.53547 447.26562 151.49414 L 447.26562 116.49805 L 459.66211 116.49805 L 459.66211 154.32031 C 459.66211 167.49498 453.22999 173.85547 439.61133 173.85547 C 426.04866 173.85547 419.54297 167.41898 419.54297 154.32031 L 419.54297 116.49805 z M 502.31836 116.49805 L 516.39453 116.49805 C 523.9012 116.49805 529.57033 116.73081 533.625 118.88281 C 538.677 121.55348 541.43555 126.53854 541.43555 133.0332 C 541.43555 140.54387 537.83426 145.90508 531.18359 148.20508 L 543.42188 172.47852 L 529.73242 172.47852 L 518.85547 149.66211 L 514.7168 149.66211 L 514.7168 172.47852 L 502.31836 172.47852 L 502.31836 116.49805 z M 352.85742 125.1543 L 352.85742 139.01758 L 357.75781 139.01758 C 362.80981 139.01758 365.25586 136.71007 365.25586 132.05273 C 365.25586 127.22473 362.88048 125.1543 357.75781 125.1543 L 352.85742 125.1543 z M 514.7168 125.99609 L 514.7168 140.69531 L 518.15625 140.69531 C 525.66425 140.69531 529.02734 139.62756 529.02734 133.35156 C 529.02734 127.06223 525.66425 125.99609 518.15625 125.99609 L 514.7168 125.99609 z M 56.855469 127.29883 L 56.855469 161.68359 L 59.765625 161.68359 C 67.800025 161.68359 71.017578 158.4618 71.017578 150.3418 L 71.017578 138.55078 C 71.017578 130.43211 67.888025 127.29883 59.765625 127.29883 L 56.855469 127.29883 z M 352.85742 147.73047 L 352.85742 163.35156 L 358.2207 163.35156 C 363.80337 163.35156 366.49023 160.90331 366.49023 155.55664 C 366.49023 150.19531 363.80337 147.73047 358.2207 147.73047 L 352.85742 147.73047 z M 174.2793 170.94922 C 182.40196 170.94922 188.59856 174.31017 192.58789 180.82617 L 183.70508 187.17578 C 180.71441 182.96245 177.42113 180.89453 173.5918 180.89453 C 169.76513 180.89453 167.39648 183.04192 167.39648 186.03125 C 167.39648 188.86192 169.61148 190.92116 174.13281 192.92383 C 179.80081 195.36649 184.77786 196.97144 188.14453 199.66211 C 191.88986 202.63544 194.03906 207.16256 194.03906 212.58789 C 194.03906 222.77989 186.38157 229.81445 174.74023 229.81445 C 165.9429 229.81445 159.20201 226.0009 154.52734 218.49023 L 164.17773 211.67383 C 167.39507 216.95249 170.53531 219.41016 175.05664 219.41016 C 179.33397 219.41016 182.0957 216.88691 182.0957 213.51758 C 182.0957 210.45758 180.09986 208.15639 175.89453 206.40039 C 170.37586 204.09906 165.5484 202.4958 162.03906 199.73047 C 158.13506 196.67047 156.13477 192.38245 156.13477 187.17578 C 156.13477 177.29311 163.1073 170.94922 174.2793 170.94922 z M 246.33008 170.94922 C 254.45008 170.94922 260.64305 174.31017 264.62305 180.82617 L 255.74805 187.17578 C 252.75871 182.96245 249.46862 180.89453 245.64062 180.89453 C 241.81129 180.89453 239.43555 183.04192 239.43555 186.03125 C 239.43555 188.86192 241.66573 190.92116 246.17773 192.92383 C 251.84307 195.36649 256.82465 196.97144 260.19531 199.66211 C 263.94331 202.63544 266.08203 207.16256 266.08203 212.58789 C 266.08203 222.77989 258.42621 229.81445 246.79688 229.81445 C 237.98221 229.81445 231.25279 226.0009 226.57812 218.49023 L 236.22461 211.67383 C 239.43394 216.95249 242.58308 219.41016 247.09375 219.41016 C 251.38975 219.41016 254.14258 216.88691 254.14258 213.51758 C 254.14258 210.45758 252.15279 208.15639 247.93945 206.40039 C 242.42212 204.09906 237.60346 202.4958 234.07812 199.73047 C 230.17679 196.67047 228.19141 192.38245 228.19141 187.17578 C 228.19141 177.29311 235.15141 170.94922 246.33008 170.94922 z M 82.173828 172.39258 L 119.92773 172.39258 L 119.92773 183.19727 L 94.576172 183.19727 L 94.576172 193.23242 L 111.88281 193.23242 L 111.88281 204.01953 L 94.576172 204.01953 L 94.576172 217.57227 L 121.53125 217.57227 L 121.53125 228.36328 L 82.173828 228.36328 L 82.173828 172.39258 z M 302.53516 172.39258 L 340.27539 172.39258 L 340.27539 183.19727 L 314.92969 183.19727 L 314.92969 193.23242 L 332.24609 193.23242 L 332.24609 204.01953 L 314.92969 204.01953 L 314.92969 217.57227 L 341.88672 217.57227 L 341.88672 228.36328 L 302.53516 228.36328 L 302.53516 172.39258 z M 379.10352 172.39258 L 391.03906 172.39258 L 408.96094 206.40039 L 408.73047 172.39258 L 419.52344 172.39258 L 419.52344 228.36328 L 409.33594 228.36328 L 389.66602 190.54688 L 389.89258 228.36328 L 379.10352 228.36328 L 379.10352 172.39258 z "
         transform="matrix(7.5000002,0,0,-7.5000002,0,3256.6001)"
         id="path36" /></g></g></svg>